<svg xmlns="http://www.w3.org/2000/svg" width="210" height="48" viewBox="0 0 210 48" fill="none">
  <path d="M204.473 9.19698L209.482 14.2402C209.657 14.3795 209.786 14.5675 209.854 14.7805C209.956 16.0218 209.016 16.0897 208.056 16.1591C207.641 16.1891 207.222 16.2194 206.882 16.3452C205.198 16.8011 203.695 17.764 202.578 19.1032C201.46 20.4424 200.782 22.0931 200.634 23.8312C200.526 24.0319 200.363 24.1972 200.162 24.307C199.963 24.4169 199.736 24.4666 199.508 24.4504C199.244 24.427 198.997 24.3114 198.81 24.1238L197.166 22.4686C197.178 22.5818 197.178 22.694 197.178 22.7843V23.8762C197.178 23.9452 197.18 24.0116 197.172 24.078C197.161 24.1524 197.136 24.2266 197.077 24.3038V24.4052C197.077 24.457 197.083 24.5051 197.089 24.5539C197.101 24.6539 197.114 24.7568 197.077 24.9006C197.041 25.0346 197.038 25.191 197.033 25.3306C197.032 25.4135 197.029 25.4905 197.021 25.5534C197.009 25.6406 197.009 25.7338 197.002 25.8268C196.994 25.9139 196.98 26.0009 196.942 26.0825C196.889 26.1967 196.871 26.3058 196.866 26.4167C196.862 26.4697 196.862 26.5231 196.862 26.5778L196.795 26.9268L194.24 39.1069L194.038 40.0187L193.958 41.3471L192.833 47.0994L192.653 48H101.55L101.111 47.5609L101.032 47.9437H91.2833L85.8574 42.4841L86.3752 40.0187H83.3132L81.4109 38.0938C79.0499 39.813 76.1921 40.7142 73.272 40.6604C70.133 40.7839 67.0729 39.6586 64.7617 37.531L61.8011 34.5479L61.1594 37.5421C61.0807 37.9699 60.9793 38.3753 60.8668 38.7692L60.7655 39.1408L60.5966 39.681C60.5827 39.7279 60.5639 39.7733 60.5404 39.8161C60.3727 40.3124 60.1735 40.7975 59.9437 41.2682C59.9497 41.2865 59.9497 41.3063 59.9437 41.3245C59.9142 41.3869 59.8804 41.447 59.8423 41.5046C59.6724 41.841 59.4846 42.1679 59.2795 42.4841C59.2415 42.5416 59.2076 42.6018 59.1782 42.6642L59.0544 42.7992C58.7792 43.1939 58.4784 43.5698 58.1538 43.9249C58.0648 44.014 57.9757 44.0976 57.8852 44.1797C57.7928 44.2637 57.699 44.3461 57.6022 44.4314L57.3546 44.6678C57.1985 44.7976 57.0388 44.9227 56.8757 45.0433C56.7412 45.1428 56.6044 45.239 56.4653 45.332C54.1453 46.7066 51.4692 47.3609 48.7768 47.212C45.0619 47.212 42.09 46.1312 40.2101 44.2402L34.9193 38.9155C32.806 40.1114 30.413 40.7252 27.985 40.6942C24.8555 40.791 21.8138 39.6504 19.5197 37.5197L16.5592 34.5366L15.6023 39.1408L15.4109 40.0525H5.44843L0 34.559L0.281425 33.2308L6.27018 4.46902L6.45025 3.56846H16.4465L16.7054 3.81616V3.56846H84.0563L84.304 3.81616V3.56846H94.0525L99.5009 9.0619L99.2308 10.379L98.9381 11.8199H101.741L102.18 12.259C103.413 11.5361 104.814 11.1481 106.244 11.1332C107.295 11.1125 108.339 11.3121 109.308 11.7193C110.278 12.1265 111.151 12.732 111.872 13.4971L111.726 13.3283L114.371 15.9962C115.981 12.9682 119.595 11.1332 124.502 11.1332C128.308 11.1332 131.111 12.1013 132.81 13.8574L134.724 15.7824L135.366 12.6866L135.557 11.7861H145.316L148.109 14.5891L148.502 12.6979L148.694 11.7973H167.899L168.416 12.3152C169.717 11.5477 171.206 11.1578 172.717 11.1895C173.626 11.154 174.53 11.3204 175.368 11.6766C176.204 12.0328 176.952 12.57 177.557 13.2496C177.526 13.2142 177.496 13.1788 177.466 13.144C177.412 13.0794 177.358 13.0164 177.3 12.9581L178.278 13.9362C179.13 13.0538 180.155 12.3551 181.286 11.8828C182.419 11.4105 183.636 11.1745 184.862 11.1895C185.514 11.1494 186.164 11.2049 186.796 11.3524L185.73 10.2777C185.585 10.1223 185.486 9.92905 185.447 9.72025C185.407 9.51145 185.428 9.29557 185.504 9.09776C185.582 8.89988 185.714 8.72812 185.886 8.60225C186.058 8.47638 186.26 8.40155 186.473 8.3865H187.328C187.559 8.36452 187.788 8.33071 188.015 8.28516C189.211 8.03369 190.337 7.51949 191.31 6.77964C192.284 6.03988 193.081 5.09302 193.644 4.00751C193.693 3.92354 193.738 3.83718 193.778 3.74861V3.69234C194.166 2.85858 194.401 1.96297 194.477 1.0469C194.496 0.762244 194.624 0.495727 194.833 0.301423C195.042 0.107049 195.317 -0.000683808 195.602 3.26625e-06H195.692C195.863 0.0162182 196.028 0.0713217 196.175 0.161053C196.321 0.250854 196.445 0.372878 196.537 0.517852C197.347 1.30585 201.85 5.8874 201.85 5.8874C202.225 6.29086 202.198 6.81462 202.169 7.34455C202.151 7.67222 202.133 8.0023 202.21 8.3077C202.415 8.34445 202.622 8.37228 202.829 8.39111C203.028 8.40904 203.227 8.41879 203.426 8.42024C203.659 8.42512 203.886 8.50248 204.073 8.64168C204.26 8.78082 204.401 8.97492 204.473 9.19698Z" fill="#1D2019"/>
  <path d="M51.5233 12.9006H58.6378L54.6528 31.8011C53.9212 35.3808 52.5252 37.4297 50.4089 38.8818C48.2683 40.1239 45.8104 40.711 43.3396 40.5703C38.6341 40.5703 34.12 38.6004 33.6697 33.8161H40.8292C41.0543 34.9418 42.09 35.5835 43.666 35.5835C45.7936 35.5835 46.7729 34.3002 47.212 32.2852L47.6396 30.2026H47.4821C46.8539 30.8932 46.0919 31.4488 45.2424 31.8358C44.3928 32.2228 43.4736 32.4331 42.5402 32.454C38.3977 32.454 35.1106 29.1557 35.1781 24.3264C35.2682 18.6979 38.938 12.304 45.0956 12.304C46.2625 12.2254 47.4275 12.4825 48.4529 13.0451C49.4783 13.6075 50.321 14.452 50.8817 15.4784H51.0055L51.5233 12.9006ZM45.4108 27.1745C48.1463 27.1745 49.666 24.0226 49.711 21.3096C49.711 19.4972 49.0018 17.6398 46.908 17.6398C44.0486 17.6398 42.5965 20.8255 42.5515 23.5609C42.5515 25.4071 43.2607 27.1745 45.3545 27.1745M125.28 27.7824C125.28 28.9868 124.243 29.4709 122.881 29.4709C120.63 29.4709 119.876 28.3452 119.865 26.7692H112.784C112.66 32.6454 117.906 34.0975 122.567 34.0975C128.521 34.0975 132.383 31.5197 132.462 26.3753C132.462 22.2664 128.96 21.0169 125.516 20.2176C122.87 19.6098 121.711 19.1707 121.722 18.1688C121.734 17.167 122.916 16.7617 124.075 16.7617C125.527 16.7617 126.517 17.2795 126.619 18.6079H133.498C133.418 13.6998 128.994 12.259 124.492 12.259C119.021 12.259 114.754 14.7467 114.687 19.4521C114.687 23.1557 117.186 24.5178 120.956 25.486C123.377 26.1276 125.302 26.3302 125.28 27.7824ZM177.883 15.9512H177.76C177.454 14.8427 176.777 13.8722 175.843 13.2006C174.91 12.5291 173.774 12.1968 172.626 12.259C169.565 12.259 167.696 13.7786 165.929 16.0751H165.805L166.458 12.9006H159.298L155.009 33.4109H162.496L164.747 22.3452C165.264 19.9362 166.492 18.2477 168.349 18.2477C170.207 18.2477 170.454 19.7335 170.071 21.546L167.594 33.4109H175.08L177.332 22.3452C177.85 19.7786 179.077 18.2477 180.934 18.2477C182.791 18.2477 183.04 19.6548 182.657 21.546L180.18 33.4109H187.666L190.345 21.2195C191.471 16.0751 189.749 12.2138 184.807 12.2138C183.432 12.2082 182.078 12.5473 180.869 13.2002C179.659 13.8532 178.633 14.799 177.883 15.9512ZM1.37329 33.4109H9.10687L15.0844 4.64916H7.36204L1.37329 33.4109ZM24.6528 12.2927C29.876 12.2927 34.863 15.1519 34.7842 21.6247C34.7166 28.7054 29.8986 34.0075 22.5365 34.0075C17.4708 34.0075 12.4052 31.1933 12.4952 24.7542C12.6191 17.8424 17.3695 12.2927 24.6528 12.2927ZM22.7504 28.9868C26.0488 28.9868 27.2532 24.2026 27.2532 21.3883C27.2532 19.3734 26.6341 17.4034 24.4614 17.4034C21.1969 17.4034 20.0825 22.469 20.0825 25.0807C20.0825 27.1745 20.6678 28.9868 22.7954 28.9868M17.6622 4.64916L16.5365 10.4015H81.4783L82.604 4.64916H17.6622ZM69.8948 12.2927C75.1181 12.2927 80.1049 15.1519 80.0262 21.6247C79.9586 28.7054 75.1294 34.0075 67.7672 34.0075C62.7016 34.0075 57.6359 31.1933 57.7373 24.7542C57.8948 17.8424 62.6453 12.2927 69.8948 12.2927ZM68.0262 28.9868C71.3245 28.9868 72.529 24.2026 72.529 21.3883C72.529 19.3734 71.8986 17.4034 69.726 17.4034C66.4727 17.4034 65.347 22.469 65.347 25.0807C65.347 27.1745 65.9323 28.9868 68.0712 28.9868M85.2607 4.64916L84.135 10.4015H91.6097L92.7354 4.64916H85.2607ZM79.272 33.4109H86.7578L91.0468 12.9006H83.5158L79.272 33.4109ZM103.159 34.0975C101.968 34.1821 100.776 33.9331 99.7186 33.3784C98.6608 32.8236 97.7784 31.985 97.1706 30.9569H97.0468L94.7954 41.3358H87.2194L93.2982 12.9006H100.413L99.8498 15.636C100.593 14.6256 101.555 13.7968 102.665 13.2118C103.774 12.6269 105.002 12.3011 106.255 12.259C110.758 12.259 113.403 16.1201 113.325 21.1408C113.223 27.4559 109.947 34.0975 103.114 34.0975H103.159ZM102.867 18.0676C99.9737 18.0676 98.195 21.7711 98.15 24.6192C98.15 26.6004 98.848 28.8067 101.223 28.8067C104.319 28.8067 105.591 24.7092 105.625 21.9737C105.625 20.1163 105.084 18.0676 102.867 18.0676ZM146.15 30.1801H146.274L145.621 33.4334H152.735L157.025 12.923H149.55L147.163 24.3827C146.68 26.758 145.216 28.0075 143.37 28.0075C141.523 28.0075 141.118 26.2739 141.49 24.4615L143.91 12.923H136.435L133.789 25.5872C132.664 31.1032 135.23 34.0751 139.531 34.0751C140.881 34.0619 142.205 33.6929 143.366 33.005C144.528 32.3172 145.489 31.335 146.15 30.1576V30.1801ZM186.304 41.4372L187.429 35.6848H98.6566L97.5308 41.4372H186.304Z" fill="white"/>
  <path d="M194.352 18.5291C194.279 18.5234 194.207 18.5032 194.141 18.4694C194.074 18.4358 194.015 18.3894 193.967 18.3329C193.919 18.2764 193.883 18.211 193.86 18.1403C193.837 18.0696 193.829 17.9952 193.835 17.9212C193.928 16.9187 193.81 15.9076 193.486 14.9543C193.162 14.001 192.64 13.1268 191.953 12.3893C191.268 11.6517 190.434 11.0673 189.508 10.6743C188.58 10.2813 187.58 10.0886 186.574 10.1088C186.425 10.1088 186.282 10.0495 186.176 9.94398C186.071 9.83843 186.011 9.69526 186.011 9.54598C186.011 9.3967 186.071 9.25355 186.176 9.148C186.282 9.04243 186.425 8.98313 186.574 8.98313C186.844 9.00058 187.115 9.00058 187.385 8.98313C189.384 8.77012 191.246 7.86677 192.652 6.42853C194.058 4.9903 194.917 3.10714 195.084 1.1032C195.096 0.961865 195.16 0.830026 195.264 0.734022C195.368 0.63802 195.505 0.584936 195.647 0.585391C195.721 0.591073 195.793 0.611339 195.859 0.645012C195.925 0.678685 195.984 0.725105 196.032 0.781602C196.081 0.8381 196.117 0.903556 196.14 0.974207C196.163 1.04486 196.171 1.1193 196.165 1.19326C196.072 2.19486 196.19 3.20496 196.513 4.1575C196.837 5.11002 197.358 5.98354 198.042 6.72094C198.727 7.45832 199.559 8.04299 200.484 8.4367C201.41 8.8304 202.409 9.02428 203.414 9.00564C203.563 9.00564 203.707 9.06496 203.813 9.17051C203.918 9.27606 203.977 9.41922 203.977 9.5685C203.977 9.71778 203.918 9.86095 203.813 9.9665C203.707 10.0721 203.563 10.1313 203.414 10.1313C201.276 10.1667 199.225 10.9905 197.657 12.4448C196.088 13.8991 195.112 15.8814 194.916 18.0113C194.904 18.1526 194.84 18.2845 194.736 18.3805C194.632 18.4765 194.495 18.5296 194.352 18.5291Z" fill="white"/>
</svg>